<?xml version="1.0" standalone="no"?>
<!DOCTYPE svg PUBLIC "-//W3C//DTD SVG 20010904//EN"
 "http://www.w3.org/TR/2001/REC-SVG-20010904/DTD/svg10.dtd">
<svg version="1.0" xmlns="http://www.w3.org/2000/svg"
 width="814.000000pt" height="814.000000pt" viewBox="0 0 814.000000 814.000000"
 preserveAspectRatio="xMidYMid meet">
<metadata>
Created by potrace 1.14, written by Peter Selinger 2001-2017
</metadata>
<g transform="translate(0.000000,814.000000) scale(0.100000,-0.100000)"
fill="#000000" stroke="none">
<path d="M3839 8136 c-2 -2 -46 -6 -96 -10 -81 -5 -195 -18 -273 -31 -14 -3
-43 -7 -65 -10 -22 -3 -74 -12 -115 -21 -41 -8 -86 -16 -99 -19 -13 -2 -38 -9
-55 -14 -17 -6 -44 -12 -59 -15 -80 -14 -329 -94 -507 -163 -126 -49 -457
-211 -560 -273 -36 -22 -72 -43 -80 -47 -8 -4 -19 -11 -25 -15 -5 -4 -48 -33
-95 -64 -132 -88 -295 -213 -435 -334 -83 -71 -343 -338 -420 -430 -404 -485
-687 -1042 -834 -1642 -22 -90 -43 -179 -46 -198 -3 -19 -10 -57 -15 -85 -39
-204 -55 -405 -55 -690 0 -305 8 -409 60 -730 31 -193 146 -598 215 -760 5
-11 21 -49 35 -85 150 -371 433 -823 709 -1130 92 -102 337 -341 422 -412 407
-337 845 -583 1344 -751 222 -75 552 -150 755 -173 28 -3 61 -7 75 -10 152
-25 747 -25 900 0 14 2 48 7 75 10 71 9 113 15 170 26 28 5 65 12 82 15 18 3
63 12 100 21 38 9 76 17 85 19 30 6 211 56 258 72 60 19 64 20 70 21 7 1 134
49 220 83 392 156 775 385 1110 665 109 91 356 333 452 444 99 114 214 264
287 375 36 55 68 102 71 105 3 3 26 39 50 80 208 351 353 690 450 1055 30 111
75 318 85 391 3 21 7 48 10 59 4 18 8 49 21 160 26 222 26 756 0 892 -3 12 -7
48 -11 80 -3 32 -8 67 -10 78 -3 11 -7 37 -10 58 -23 166 -101 477 -163 647
-3 8 -6 20 -8 25 -18 75 -152 387 -225 528 -59 113 -186 331 -211 362 -5 6
-29 42 -55 80 -26 39 -51 75 -55 80 -5 6 -26 33 -46 62 -136 185 -406 475
-587 629 -38 32 -72 61 -75 65 -3 3 -23 18 -45 34 -22 17 -42 33 -45 36 -7 8
-139 104 -220 160 -197 137 -521 308 -775 410 -258 103 -590 195 -840 234 -22
3 -56 8 -75 11 -48 8 -75 12 -146 19 -33 4 -74 9 -90 11 -34 6 -580 15 -585
10z"/>
</g>
</svg>
